<svg version="1.1" viewBox="0 0 16.015 16" xmlns="http://www.w3.org/2000/svg">
 <g transform="translate(-192 -80)">
  <path d="m198.81 80.12-0.2222 1.1883c-0.62204 0.13162-1.2343 0.35473-1.8201 0.66852l-0.94675-0.76319-1.8181 1.5264 0.59704 1.0569c-0.40336 0.51502-0.7276 1.081-0.96801 1.679l-1.2172 0.0231-0.41154 2.3379 1.1303 0.42506c0.019 0.64331 0.1289 1.2879 0.33426 1.9167l-0.90618 0.79218 1.1863 2.0558 1.1284-0.39802c0.4423 0.49444 0.94857 0.91299 1.4974 1.252l-0.18356 1.1883 2.2297 0.81149 0.61441-1.0414c0.63936 0.0906 1.2928 0.0931 1.9418 0l0.62794 1.0376 2.2297-0.81344-0.19901-1.196c0.56508-0.35163 1.063-0.77233 1.4878-1.2462l1.1477 0.39415 1.1863-2.0577-0.9197-0.78638c0.20269-0.61732 0.31695-1.2608 0.34006-1.9128l1.1264-0.43473-0.41155-2.3379-1.1998-0.01159c-0.11996-0.29928-0.2613-0.59379-0.427-0.88105-0.16584-0.28751-0.34957-0.55766-0.54873-0.81151l0.57964-1.0511-1.8181-1.5264-0.92935 0.76512c-0.57646-0.30614-1.1934-0.5261-1.8297-0.65884l-0.23379-1.1902zm1.196 2.2158c3.1681 5e-4 5.7362 2.5514 5.7366 5.6982 6.7e-4 3.1476-2.5678 5.6996-5.7366 5.7001-3.1696 5e-4 -5.7391-2.5518-5.7385-5.7001 3.3e-4 -3.1476 2.5697-5.6988 5.7385-5.6982zm8e-3 2.2377c-0.0837-1.6e-4 -0.16796 2e-3 -0.25117 8e-3 -1.1096 0.0779-2.1612 0.68644-2.7572 1.7196-0.95346 1.6531-0.38299 3.7757 1.2714 4.7318 1.6544 0.95608 3.7764 0.38946 4.7299-1.2636 0.95347-1.6531 0.38299-3.7757-1.2714-4.7318-0.54283-0.31372-1.1358-0.46254-1.7215-0.46371zm-8e-3 1.1206c1.2934-1.1e-4 2.3419 1.0484 2.3418 2.3418 1e-4 1.2934-1.0484 2.3418-2.3418 2.3417-1.2933 1.1e-4 -2.3418-1.0484-2.3417-2.3417-1.1e-4 -1.2934 1.0484-2.3419 2.3417-2.3418z" color="#000000" color-rendering="auto" fill="#808080" image-rendering="auto" shape-rendering="auto" solid-color="#000000" stop-color="#000000" style="-inkscape-stroke:none;font-feature-settings:normal;font-variant-alternates:normal;font-variant-caps:normal;font-variant-ligatures:none;font-variant-numeric:normal;font-variant-position:normal;font-variation-settings:normal;isolation:auto;mix-blend-mode:normal;shape-padding:0;text-decoration-color:#000000;text-decoration-line:none;text-decoration-style:solid;text-indent:0;text-transform:none;white-space:normal"/>
 </g>
</svg>
