<svg version="1.1" viewBox="0 0 16 16" xmlns="http://www.w3.org/2000/svg">
 <path d="m8 1c-2.2097 0-4 1.7903-4 4v0.59961 1.4004h-1v5.1211 0.0781h2e-3c0.04297 1.5582 1.3633 2.8008 2.998 2.8008h4c1.6347 0 2.955-1.2426 2.998-2.8008h2e-3v-0.07813-5.1211h-1v-1.4004-0.59961c0-2.2097-1.7903-4-4-4zm0 1c1.6696 0 3 1.3304 3 3v0.59961 1.4004h-6v-1.4004-0.59961c0-1.6696 1.3304-3 3-3z" color="#000000" color-rendering="auto" fill="#808080" image-rendering="auto" shape-rendering="auto" solid-color="#000000" stop-color="#000000" style="-inkscape-stroke:none;font-variation-settings:normal;isolation:auto;mix-blend-mode:normal;shape-padding:0;text-decoration-color:#000000;text-decoration-line:none;text-decoration-style:solid;text-indent:0;text-transform:none;white-space:normal"/>
</svg>
