<svg version="1.1" viewBox="0 0 16 16.001" xmlns="http://www.w3.org/2000/svg">
 <g fill="gray" font-weight="400">
  <path d="M11.5 9a.5.5 0 0 0-.353.854l.556.556c-.298.165-.498.249-1.002.627-.396.297-.801.647-1.123 1.049-.322.402-.578.872-.578 1.414 0 .861.345 1.586.984 1.986.64.4 1.474.514 2.516.514s1.876-.114 2.516-.514c.64-.4.984-1.125.984-1.986 0-.542-.256-1.012-.578-1.414-.322-.402-.725-.752-1.121-1.049-.505-.379-.707-.462-1.004-.627l.557-.556A.5.5 0 0 0 13.5 9zm1 2.088c.174.091.605.303 1.201.75.354.265.699.572.94.873.24.3.359.58.359.789 0 .639-.155.914-.516 1.139-.36.225-1.026.361-1.984.361s-1.624-.136-1.984-.361c-.36-.225-.516-.5-.516-1.139 0-.208.119-.488.36-.79.24-.3.587-.607.94-.872.597-.447 1.025-.658 1.2-.75z" fill-rule="evenodd" font-family="sans-serif" overflow="visible" style="font-feature-settings:normal;font-variant-alternates:normal;font-variant-caps:normal;font-variant-ligatures:normal;font-variant-numeric:normal;font-variant-position:normal;isolation:auto;mix-blend-mode:normal;shape-padding:0;text-decoration-color:#000;text-decoration-line:none;text-decoration-style:solid;text-indent:0;text-orientation:mixed;text-transform:none" white-space="normal"/>
 </g>
 <path d="m7.498 0c-1.1 0-2.1445 0.32031-2.1445 0.32031l-0.3555 0.10742v1.6836c-1.023 0.1854-2.0304 0.47396-2.998 0.88867l-1 1v1h1e-4l0.9999 9c0 0.43888 0.039 0.78839 0.1504 1.082 0.1109 0.29364 0.3108 0.52816 0.5625 0.66797 0.5033 0.27962 1.1198 0.25 1.9531 0.25h3.33v-1h-3.3301c-0.857 0-1.2947-0.0283-1.4687-0.125-0.033-0.0184-0.081-0.0597-0.1133-0.14648v-2e-3c-0.046-0.12135-0.084-0.34753-0.084-0.72656v-2e-3l-0.9999-8.998h12v-1l-1.0019-1c-0.9682-0.41523-1.976-0.70333-3-0.88867v-1.6621l-0.3301-0.11914s-0.913-0.33008-2.1699-0.33008zm0 1c0.8903 0 1.2908 0.15524 1.5 0.2207v0.73828c-0.4978-0.0534-0.9978-0.084-1.498-0.084-0.5016 0-1.0027 0.0323-1.502 0.0859v-0.73438c0.2661-0.0695 0.7724-0.2265 1.5-0.2265zm-2.5 5v6h1v-6zm2 0v6h1v-6zm2 0v4h1v-4zm3.998 0-0.298 2h1l0.298-2z" fill="#808080"/>
</svg>
